REM DIRINDEX 1\6,1\2\7,1\2\8,1\2\9,1\3\10,1\3\11,1\4\12,1\4\13,1\4\14,1\5\15,1\5\16,1\5\17
REM DIRNAME folder01,folder02,folder03,folder04,folder05,folder06,folder07,folder08,folder09,folder10,folder11,folder12,folder13,folder14,folder15,folder16,folder17
TITLE ""
FILE "P2Q_j_1464-1477.mp3" MP3
  TRACK 01 AUDIO
    TITLE "12:cjc040_1137"
    INDEX 01 00:00:00
  TRACK 02 AUDIO
    TITLE "0:"
    INDEX 01 00:02:32
  TRACK 03 AUDIO
    TITLE "13:cjc040_1138"
    INDEX 01 00:03:14
  TRACK 04 AUDIO
    TITLE "0:"
    INDEX 01 00:05:28
  TRACK 05 AUDIO
    TITLE "14:cjc040_1139"
    INDEX 01 00:06:00
  TRACK 06 AUDIO
    TITLE "0:"
    INDEX 01 00:10:35
  TRACK 07 AUDIO
    TITLE "12:cjc040_1140"
    INDEX 01 00:11:09
  TRACK 08 AUDIO
    TITLE "0:"
    INDEX 01 00:12:24
  TRACK 09 AUDIO
    TITLE "13:cjc040_1141"
    INDEX 01 00:13:06
  TRACK 10 AUDIO
    TITLE "0:"
    INDEX 01 00:16:65
  TRACK 11 AUDIO
    TITLE "14:cjc040_1142"
    INDEX 01 00:17:41
  TRACK 12 AUDIO
    TITLE "0:"
    INDEX 01 00:22:36
  TRACK 13 AUDIO
    TITLE "12:cjc040_1143"
    INDEX 01 00:23:12
  TRACK 14 AUDIO
    TITLE "0:"
    INDEX 01 00:24:59
  TRACK 15 AUDIO
    TITLE "13:cjc040_1144"
    INDEX 01 00:25:39
  TRACK 16 AUDIO
    TITLE "0:"
    INDEX 01 00:26:73
  TRACK 17 AUDIO
    TITLE "14:cjc040_1145"
    INDEX 01 00:27:49
  TRACK 18 AUDIO
    TITLE "0:"
    INDEX 01 00:32:68
  TRACK 19 AUDIO
    TITLE "12:cjc040_1146"
    INDEX 01 00:33:44
  TRACK 20 AUDIO
    TITLE "0:"
    INDEX 01 00:35:29
  TRACK 21 AUDIO
    TITLE "13:cjc040_1147"
    INDEX 01 00:36:13
  TRACK 22 AUDIO
    TITLE "0:"
    INDEX 01 00:37:26
  TRACK 23 AUDIO
    TITLE "14:cjc040_1148"
    INDEX 01 00:38:04
  TRACK 24 AUDIO
    TITLE "0:"
    INDEX 01 00:45:14
  TRACK 25 AUDIO
    TITLE "12:cjc040_1149"
    INDEX 01 00:45:65
  TRACK 26 AUDIO
    TITLE "0:"
    INDEX 01 00:48:51
  TRACK 27 AUDIO
    TITLE "13:cjc040_1150"
    INDEX 01 00:49:25
  TRACK 28 AUDIO
    TITLE "0:"
    INDEX 01 00:51:28
  TRACK 29 AUDIO
    TITLE "14:cjc040_1151"
    INDEX 01 00:52:08
  TRACK 30 AUDIO
    TITLE "0:"
    INDEX 01 00:59:02
  TRACK 31 AUDIO
    TITLE "12:cjc040_1152"
    INDEX 01 00:59:51
  TRACK 32 AUDIO
    TITLE "0:"
    INDEX 01 01:01:29
  TRACK 33 AUDIO
    TITLE "13:cjc040_1153"
    INDEX 01 01:02:12
  TRACK 34 AUDIO
    TITLE "0:"
    INDEX 01 01:03:59
  TRACK 35 AUDIO
    TITLE "14:cjc040_1154"
    INDEX 01 01:04:37
  TRACK 36 AUDIO
    TITLE "0:"
    INDEX 01 01:08:52
  TRACK 37 AUDIO
    TITLE "12:cjc040_1155"
    INDEX 01 01:09:28
  TRACK 38 AUDIO
    TITLE "0:"
    INDEX 01 01:10:65
  TRACK 39 AUDIO
    TITLE "13:cjc040_1156"
    INDEX 01 01:11:35
  TRACK 40 AUDIO
    TITLE "0:"
    INDEX 01 01:13:28
  TRACK 41 AUDIO
    TITLE "14:cjc040_1157"
    INDEX 01 01:14:06
  TRACK 42 AUDIO
    TITLE "0:"
    INDEX 01 01:17:71
  TRACK 43 AUDIO
    TITLE "12:cjc040_1158"
    INDEX 01 01:18:54
  TRACK 44 AUDIO
    TITLE "0:"
    INDEX 01 01:20:06
  TRACK 45 AUDIO
    TITLE "13:cjc040_1159"
    INDEX 01 01:20:55
  TRACK 46 AUDIO
    TITLE "0:"
    INDEX 01 01:21:65
  TRACK 47 AUDIO
    TITLE "14:cjc040_1160"
    INDEX 01 01:22:41
  TRACK 48 AUDIO
    TITLE "0:"
    INDEX 01 01:26:42
  TRACK 49 AUDIO
    TITLE "12:cjc040_1161"
    INDEX 01 01:27:20
  TRACK 50 AUDIO
    TITLE "0:"
    INDEX 01 01:28:35
  TRACK 51 AUDIO
    TITLE "13:cjc040_1162"
    INDEX 01 01:29:21
  TRACK 52 AUDIO
    TITLE "0:"
    INDEX 01 01:31:20
  TRACK 53 AUDIO
    TITLE "14:cjc040_1163"
    INDEX 01 01:31:73
  TRACK 54 AUDIO
    TITLE "0:"
    INDEX 01 01:37:05
  TRACK 55 AUDIO
    TITLE "12:cjc040_1164"
    INDEX 01 01:37:58
  TRACK 56 AUDIO
    TITLE "0:"
    INDEX 01 01:39:21
  TRACK 57 AUDIO
    TITLE "13:cjc040_1165"
    INDEX 01 01:40:03
  TRACK 58 AUDIO
    TITLE "0:"
    INDEX 01 01:41:59
  TRACK 59 AUDIO
    TITLE "14:cjc040_1166"
    INDEX 01 01:42:41
  TRACK 60 AUDIO
    TITLE "0:"
    INDEX 01 01:46:66
  TRACK 61 AUDIO
    TITLE "12:cjc040_1167"
    INDEX 01 01:47:46
  TRACK 62 AUDIO
    TITLE "0:"
    INDEX 01 01:49:08
  TRACK 63 AUDIO
    TITLE "13:cjc040_1168"
    INDEX 01 01:49:57
  TRACK 64 AUDIO
    TITLE "0:"
    INDEX 01 01:51:40
  TRACK 65 AUDIO
    TITLE "14:cjc040_1169"
    INDEX 01 01:52:22
  TRACK 66 AUDIO
    TITLE "0:"
    INDEX 01 01:55:50
  TRACK 67 AUDIO
    TITLE "12:cjc040_1170"
    INDEX 01 01:56:34
  TRACK 68 AUDIO
    TITLE "0:"
    INDEX 01 01:57:64
  TRACK 69 AUDIO
    TITLE "13:cjc040_1171"
    INDEX 01 01:58:44
  TRACK 70 AUDIO
    TITLE "0:"
    INDEX 01 01:59:71
  TRACK 71 AUDIO
    TITLE "14:cjc040_1172"
    INDEX 01 02:00:47
  TRACK 72 AUDIO
    TITLE "0:"
    INDEX 01 02:05:23
  TRACK 73 AUDIO
    TITLE "12:cjc040_1173"
    INDEX 01 02:06:05
  TRACK 74 AUDIO
    TITLE "0:"
    INDEX 01 02:07:61
  TRACK 75 AUDIO
    TITLE "13:cjc040_1174"
    INDEX 01 02:08:45
  TRACK 76 AUDIO
    TITLE "0:"
    INDEX 01 02:10:26
  TRACK 77 AUDIO
    TITLE "14:cjc040_1175"
    INDEX 01 02:11:12
  TRACK 78 AUDIO
    TITLE "0:"
    INDEX 01 02:15:47
  TRACK 79 AUDIO
    TITLE "12:cjc040_1176"
    INDEX 01 02:16:24
  TRACK 80 AUDIO
    TITLE "0:"
    INDEX 01 02:18:37
  TRACK 81 AUDIO
    TITLE "13:cjc040_1177"
    INDEX 01 02:19:19
  TRACK 82 AUDIO
    TITLE "0:"
    INDEX 01 02:21:20
  TRACK 83 AUDIO
    TITLE "14:cjc040_1178"
    INDEX 01 02:21:73
  TRACK 84 AUDIO
    TITLE "0:"
    INDEX 01 02:25:10
